<svg xmlns="http://www.w3.org/2000/svg" viewBox="0 0 500 700"><defs><style>.cls-1{fill:#5a3827}.cls-2{fill:#c57060}.cls-3{fill:#7a513a}.cls-5{fill:#273550}.cls-6{fill:#324a55}.cls-7{fill:#212743}.cls-8{fill:#202642}.cls-9{fill:#fff}.cls-10{fill:#d88570}.cls-12{fill:#050b26}.cls-13{fill:#ba7465}.cls-14{fill:#fdb292}.cls-15{fill:#286ea3}.cls-16{fill:#fcae8f}</style></defs><g id="Layer_1"><path d="M334.17 109.52h-8.94l-.15-5.28-10.9-.02-.04-10.84H303.7v21.19l10.56-.06.04 11.15-5.58.02.04-5.64-5.09-.16-.09-5.46-9.46.4c-.38.02-1.14-.09-1.27-.38-.1-.23-.2-.87-.19-1.14l.21-9.23-10.48-.11-.06-10.07c-.08-.46-1.5-.72-1.95-.72l-8.58-.02.02-10.36 20.85-.21V72l-21.12-.02-.07 4.99-10.7.05-.09 5.32h-10.44l-.04 10.8h-10.62V77.05l10.78.12.05-5.19 5.59-.06.03-10.69c-5.45-.69-10.35.39-16.34-.27l-.36 10.81H229l-.19 21.68-10.65-.32.05-10.74-5.25-.11-.02-16.16-.31-4.89-15.7-.07c-.14 0-.47-.02-.69-.03l.02-10.51h-20.5l.13 9.86 4.32.03c.33 0 1.06.46.96.65l4.83.03.71-.05-.07 10.66 10.02.21.02 10.71h10.86l-.03 10.39H197l-.13 5.21-5.18.05.06 5.58-10.84.03.07 5.45-5.19.31.02 4.81-5.53-.09c-.04-3.69-.02-6.85.24-10.44l5.23-.18.04-10.72h5.29l-.23-10.8 5.34.29-.17-10.64c-.16 0-.42 0-.56-.02-3.05.84-6.4.15-9.64.43l.02 9.16c0 .48-.42.74-.64.74l-10.31.17c-.53 3.15.35 8.36-.5 10.64-.09.25-.57.66-.88.66l-7.83-.02c-.14 0-.61-.11-.63-.22l-.04-.38c-.21 0-.65.34-.65.55l.02 10.23h10.35v10.62h-10.54v11l10.54.06v53.01l10.75.18.05 10.38 10.84.36.07 10.66 10.41.14c.16-3.63.51-7.39.32-11.07-.17-3.49-.37-7.03-.32-10.56l-10.49-.02-10.88.08.06-32 10.56-.07.28 5.07 5.27.19.02 9.92.62.63 3.98.04c.47 0 .6 1.14.61 1.49.55.61.78 1.72.78 2.82.58-.22 1.76-.69 2.31-.53.53.16 1.16.96 1.54 1.48.06-.01.19-.04.25-.04l.07-31.22c0-.72.91-1.31 1.49-1.31l4.11.03c.25-1.52.33-4.45.25-6.15-.04-.69-.09-1.27 0-1.95l.02-1.55v-11.11l5.25.06 4.94-.06.08-10.15c2.02-.33 3.76-.1 5.59-.11l47.82-.12.09 10.38 9.93.07c.27 0 .95.33.96.67.08 3.23.04 6.95-.22 10.13 7.01.49 14.04.13 21.42.25.05 3.48-.07 7.01.2 10.25l1.2.04h1.63l5.5.03c.48 0 1.73-.2 1.98.28l-.07 7.11c0 .78.23 2.03.07 2.76l.3.37 10.63.14-.07-22.71-.14-9.67 2.98-.41c.89-3.68 4.06.54 8.05-3.65-.48-.29-1.28-.66-1.69-.66Zm-137.62 10.26-10.3.35-.09 10.54-5.32.05-.03 5.23-5.29-.1.02-16h10.56l.08-5.32 10.5.22-.14 5.02Zm.32-5.23-.02-10.35 10.62-.27.04 10.33z" class="cls-1"/><path d="m325.01 60.96.46.36-.18 10.15h9.87l-.4-10.19c.16 0 .46.06.61.09s.27.56.27.77l-.04 9.8c-1.79.37-10.49-.32-10.59.36l-.15.97c-.49.45-1.36 1.17-1.95 1.12-2.11-.2-1.32-2.33-4.7-2.34L303.67 72l.4 10.41 10.15.02.05 10.4c3.3.54 6.11-.09 9.08-1.32.5.43 1.15 1.09 1.56 1.33 1.29.76 7.96 0 10.66.46l.05 10.72 5.24.06.05 10.43-15.58-.02.17 8.65c0 .12-.16.65-.27.68l-.3.08-.14-9.67 2.99-.41c.89-3.68 4.06.54 8.05-3.65-.48-.29-1.27-.66-1.69-.66h-8.93l-.15-5.28-10.9-.02-.04-10.83h-10.44v21.18l10.55-.06.04 11.14-5.57.02.04-5.63-5.08-.16-.09-5.46-9.46.41c-.38.02-1.14-.09-1.26-.38-.1-.23-.2-.87-.19-1.14l.21-9.23-10.47-.11-.06-10.07c-.08-.46-1.5-.72-1.96-.72l-8.58-.02.02-10.36 20.85-.22V71.99l-21.12-.02-.07 4.98-10.7.05-.1 5.32h-10.44l-.04 10.81h-10.61V77.04l10.78.12.05-5.18 5.59-.06.03-10.69c-5.45-.69-10.34.39-16.34-.27l-.36 10.81H229l-.19 21.67-10.65-.31.05-10.74-5.26-.11-.02-16.16-.31-4.89.36-.35c5.21.58 10.37.33 16.01.46v-7.29c0-1.08-.29-2.55-.47-3.45 1.02-1.27-.71-10.79.93-10.79l-.16 10.72 42.41.08.07 10.32 12.98.15c13.49.15 26.92.4 40.24-.17Zm.73 32.95c0-.06-.05-.11-.11-.11s-.11.05-.11.11.05.11.11.11.11-.05.11-.11m9.22 10.12.13-8.66c0-.49-.38-1.69-.89-1.68l-7.52.1.69 1.08c-.54.15-1.72.48-1.96.91l-.08 8.23z" class="cls-3"/><path d="m288 42.24-.36 2.28-5.32.07-.3 6.14c.35-.04.61-.11.76-.11l42.21-.05.03 10.39c-13.32.57-26.75.33-40.24.17l-12.98-.15-.07-10.32-42.41-.08.16-10.72c14.38 0 42.68-.02 56.76.02 2.3.06 1.63 1.76 1.77 2.34Z" class="cls-1"/><path d="M282.38 222.34c-.38 1.3-.33 4.05-.19 5.4.01.12 0 .34 0 .47v2.63l-.02 2.41c-.16-.51-.77-.93-1.32-.82-1.8.35-3.29-.12-5.06-.12l-41.55-.05-.12-5.26-7.8-.19c-2.79-.07-5.41.06-8.02-.11l-.14-3.77c-.01-.37.06-.91.12-1.66l-10.62-.17-.2-10.11.36-.11h5.45c.74-.01 1.5.01 2.25 0l6.44-.19c.48-.01 1.54.35 1.54.79l.04 9.97c2.95-.17 7.91-.22 10.49 0-.04 1.05.1 2.85.3 3.78.09.38-.06 1.59.38 1.59h27.47l.22.47 6.61.09c.15 0 .66-.14.68-.25s.04-.16.09-.3c2.38 0 4.74.06 7.33 0l.02-5.02c1.24.05 3.34-.06 4.41-.35.19-.05.56-.07.76-.09l.1.46c.02.12 0 .39-.02.51" class="cls-2"/><path d="M324.88 73.27c.1.93.11 2.58.01 3.44h-5.29l.27.68.02 4.87c0 .19-.06.67.13.67h.74c1.54 0 3.06-.3 4.13.57.15 3.01.16 6.3.05 9.35-.4-.24-1.05-.91-1.56-1.33-2.97 1.23-5.78 1.86-9.08 1.32l-.05-10.4-10.15-.02-.4-10.41 14.54.05c3.38.01 2.59 2.14 4.7 2.34.59.06 1.46-.67 1.95-1.12Z" class="cls-1"/><path d="m314.4 146.48-.12 53.71-10.51.14-.22 10.54-5.27.07-.16 5.33c-2.03-.08-3.62-.14-5.17.33-.11-.02-.3-.07-.4-.07.63-5.27.34-10.53.41-16.31l10.6-.53v-7.29l.14-20.21-.29-9.55.15-1.69v-4.52c0-1.31-.27-2.83-.17-4.13.32-4.2.29-8.47.1-12.68-.05-1.02.04-2.11.2-3.12.02-.16.11-.45.09-.6l1.2.04c-.16.31.45.72.82.72s.97-.41.81-.72l5.5.03c.48 0 1.73-.2 1.98.28l-.07 7.11c0 .78.23 2.03.07 2.76l.3.37Z" class="cls-2"/><path d="M228.55 50.65c.18.91.48 2.38.47 3.45v7.29c-5.64-.13-10.8.12-16.01-.46v-.89c.35-.71.39-1.69-.02-2.31l.02-7.16z" class="cls-1"/><path d="m207.49 210.28-.42.65-9.94-.1c-.2-3.8-.42-7.08-.28-10.48.16-3.63.51-7.39.32-11.07 1.3-.09 3.54-.06 4.68.24l-.02 7.23c0 .55.22 1.4.32 1.87.08.36-.07 1.46.34 1.46h4.99z" class="cls-2"/><path d="M176.23 61.22c.4 2.43.32 4.94.31 7.43-.27 1-.37 2.06-.36 3.11l-8.06.03c-.46 0-1.71.08-1.92-.36l-.03-10.12zM334.77 61.28l.4 10.18-9.87.01.17-10.15z" class="cls-1"/><path d="M282.78 50.62c-.15 0-.41.07-.76.11l.3-6.14 5.32-.07.36-2.28c.15.61.44 1.65.12 2.18-.84 1.43-3.93.14-5.63.7l.28 5.5ZM196.94 61.21c-.14 0-.47-.02-.69-.03l.02-10.51h.31c.13.43.31 1.24.31 1.79zM164.39 93.13c-.09.25-.57.66-.88.66l-7.83-.02c-.14 0-.61-.1-.63-.22l-.04-.38zM324.89 83.5c-1.06-.88-2.59-.57-4.13-.57h-.74c-.19 0-.13-.48-.13-.67l5.19.15c-.06.4-.2.84-.19 1.1ZM324.9 76.71c-.02.17-.15.44-.25.57-.07.09-.45.07-.64.07l-4.13.04-.27-.67h5.29ZM213.01 60.04c-.34-.73-.34-1.57-.02-2.31.41.62.37 1.6.02 2.31" class="cls-3"/><path d="m207.82 210.89-.36.11c-.09 0-.29-.06-.39-.06l.42-.65.33.61Z" class="cls-10"/><path d="M239.36 183.51c-3.73.15-7.11-.64-10.49.04l.17 14.8-.14 6.48h10.17c.12-.29.2-.59.27-.89l.05-9.15h.02z" class="cls-14"/><path d="M303.56 160.95v-4.52c0-1.31-.27-2.83-.17-4.13.32-4.2.29-8.47.1-12.68-.05-1.02.04-2.11.2-3.12.02-.16.11-.45.09-.6-.27-3.24-.15-6.77-.2-10.25-7.38-.12-14.41.24-21.42-.25.26-3.19.3-6.9.22-10.13-.01-.34-.69-.66-.96-.67l-9.93-.07-.09-10.38-47.82.12-.02 10.31-5.65-.06-4.94.06c-.47 3.57-.21 7.1-.05 10.98l-5.2.07-.02 1.55.45 1.01-.46.94c.09 1.7 0 4.63-.25 6.15-.04.27-.54.69-.86.68l-4.14-.12.04 31.85-.72.08c-.06 0-.19.03-.25.04-1.11.26-3.28.33-4.55.31l-.12 10.57c-.04 3.53.15 7.07.32 10.56 1.3-.09 3.54-.06 4.68.24.26.07.69.55.68.86-.12 2.87.16 5.69-.37 8.24.08.36-.07 1.46.34 1.46h4.99l.01 10.2.33.61h5.45c.62-.32 1.62-.32 2.25 0l6.44-.19c.48-.01 1.54.35 1.54.79l.04 9.97c2.95-.17 7.91-.22 10.49 0 .11.01.52.12.63.17.15.97.1 2.7-.33 3.61.09.38-.06 1.59.38 1.59h35.06c2.38 0 4.74.07 7.33 0l.02-5.02c0-1.36 3.42-.61 4.41-.35.19-.05.56-.07.76-.09.01-.07.06-.24.06-.32l.13-4.59 10.05.07c.63-5.27.34-10.53.41-16.31l10.6-.53v-7.29l.14-20.21-.29-9.55.15-1.69Zm-85.26-14.24-.08-10.77 18.62-.02 8.08.02-.07 10.64-5.48.22c-3.73.15-7.11-.64-10.49.04-.39.02-1.02-.09-1.28-.09l-9.29-.04Zm21.03 58.68v-1.46c-.06.3-.14.6-.26.91H228.9l.14-6.49-.17-14.8c3.37-.68 6.76.11 10.49-.04l.05 11.28 32.32-.02.03 10.61h-32.43Zm32.4-26.48-11.3.08-4.84-.09-.02-10.75 4.24-.09 11.97.04-.04 10.82Zm26.42-32.33-4.93.19-9.24-.08c-.45 0-1.26.3-1.53.42-1.39-.57-2.91-.34-4.4-.37l-6.01-.1c-.41-.01-.47-1.06-.47-1.41v-9.22l9-.1 16.78.02c.53 0 .89.57 1.14.91l-.33 9.74Z" class="cls-14"/><path d="m186.01 72.01-.02-10.76.7-.05-.07 10.66 10.02.21.02 10.71h10.86l-.03 10.4h-10.52l-.13 5.2-5.18.05.06 5.58-10.84.03.07 5.44-5.18.31.02 4.81-5.53-.09c-.04-3.69-.02-6.85.24-10.44l5.23-.18.04-10.72h5.29l-.23-10.8 5.34.28-.17-10.64Z" class="cls-3"/><path d="M186.38 151.78v.27c-.68 2.33-.24 4.98-.24 7.49v2.64l.22 16.51-10.88.08.06-31.99 10.56-.07z" class="cls-14"/><path d="m180.85 130.72-.04 5.23-5.29-.1.03-16h10.56l.08-5.32 10.5.22-.14 5.03-10.3.35-.09 10.54z" class="cls-3"/><path d="m196.97 168.15-.12 10.57-10.49-.02-.23-16.51c.17.02.23 0 .3.09.07.07.22.53.22.66l.05 3.83 3.17-2.59c.5-.4 1.19-1.41 1.74-1.56.16-.04.5-.08.67-.08l3.98.04c.47 0 .6 1.14.61 1.49l.08 4.08Z" class="cls-10"/><path d="m207.51 114.26-10.64.3-.02-10.35 10.63-.28z" class="cls-3"/><path d="M191.67 161.89c0 .18-.04.52-.05.72-.55.16-1.24 1.16-1.74 1.56l-3.17 2.59-.05-3.83c0-.12-.15-.59-.22-.66-.08-.08-.13-.07-.3-.09v-2.64c.85 1.27.63-7.67.24-7.49v-.27l5.27.19.03 9.92Z" class="cls-2"/><path d="m223.57 104.27-.02 10.31-5.65-.06.08-10.15c2.02-.33 3.76-.1 5.59-.11Z" class="cls-10"/><path d="m212.91 125.56-5.2.07v-11.11l5.25.06c-.47 3.57-.21 7.1-.05 10.98" class="cls-2"/><path d="M207.44 135.29c-.04.27-.54.69-.86.68l-4.14-.12.04 31.85-.72.08.07-31.22c0-.72.91-1.31 1.49-1.31l4.11.03ZM201.52 167.84c-1.11.26-3.28.33-4.55.31l-.08-4.08c.55.61.78 1.72.78 2.82.58-.22 1.76-.69 2.31-.53.53.16 1.16.96 1.54 1.48M181.16 61.21l-5.05.08-.22-.76 4.31.03c.33 0 1.06.46.96.65" class="cls-3"/><path d="m208.15 128.2-.46.94c-.04-.69-.09-1.27 0-1.95l.45 1.01Z" class="cls-2"/><path d="M305.8 136.66c-.37 0-.98-.41-.82-.72h1.63c.16.31-.44.71-.81.72" class="cls-10"/><path d="M192.29 162.53c-.17 0-.51.04-.67.08.02-.2.05-.54.05-.72z" class="cls-3"/><path d="m334.96 104.03-9.63-.02.08-8.23c.25-.43 1.42-.77 1.96-.91l-.69-1.08 7.52-.1c.51 0 .9 1.2.89 1.68zm-6.36-9.34c0-.19-.15-.34-.34-.34s-.34.15-.34.34.15.34.34.34.34-.15.34-.34" class="cls-1"/><circle cx="325.63" cy="93.91" r=".11" class="cls-1"/><path d="M215.52 210.88c-.74.02-1.5 0-2.25 0 .62-.32 1.62-.32 2.25 0M202.15 198.61c-.11-.47-.32-1.33-.32-1.87l.02-7.23c.26.07.69.55.68.86-.12 2.87.16 5.69-.37 8.24Z" class="cls-10"/><path d="m271.76 205.38-32.43.01v-1.46l.05-9.14h.03l32.32-.02z" class="cls-2"/><path d="m298.48 136.85-.33 9.74-4.93.19-9.24-.08c-.45 0-1.26.3-1.53.42-1.39-.57-2.91-.34-4.4-.37l-6.01-.1c-.41-.01-.47-1.06-.47-1.41v-9.22l9-.1 16.78.02c.53 0 .89.57 1.14.91ZM244.92 135.94l-.07 10.64-5.48.22c-3.73.15-7.11-.64-10.49.04-.39.02-1.02-.09-1.28-.09l-9.29-.04-.08-10.77 18.62-.02 8.08.02Z" class="cls-13"/><path d="m271.78 168.09-.05 10.82-11.3.08-4.84-.09-.02-10.76 4.24-.09zM186.14 159.55c0-2.51-.44-5.16.24-7.49.38-.18.61 8.76-.24 7.49" class="cls-10"/><circle cx="328.26" cy="94.69" r=".34" class="cls-3"/><path d="M212.64 295.97v.14h.12v-.14zm37.53 106.98v.04h.02v-.04z" class="cls-7"/><path d="m244.72 344.54-.02-5.53-5.58-.05c-.16-1.77-.11-3.26-.04-5.15l-5.23-.03.17-5.5h5.31l-.04 5.33 5.34-.1-.04-10.82h-5.26l-.29-10.46-5.17-.16.14-16.23-5.25-.08-.12-9.85.49-.08-.3-.26-5.63-.18-.12-6.64.08-1.25-.09-2.77.04-1.99-.02-4.56.06-1 .03-10.95c0-1.17.02-1.79.38-2.33l-.39-.37-4.36.09c-.38 0-.71-.65-.92-.89-.61-.71-.69-2.5-.41-3.59.25-.97-.17-2.34-.04-3.29.34-2.57.32-5.25.25-8.08l-4.94-.32v-5.3l-16.17.02v10.87l-5.02-.02.02 5.02 10.43-.02.07 5.27h5.09l.02 10.79-5.1.24-.03 10.39 5.28.08-.15 10.56 5.48.24-.04 10.39h.12v.14l5.24-.08-.05 10.58 5.27.05v10.8l5.35.04.06 5.27-5.42-.07-.03-4.94-5.41-.14-.07-10.64-5.2-.14.26-10.74h-.12v-.14l-5.45.03-.03-10.54-4.67.06c.16 1.05.27 2.15.27 3.41v32.48c0 1.24-.98 2.19-2.16 2.18l-10.82-.08-7.75-.24c-1.17-.04-2.11-.55-2.11-1.84v-35.27c-.01-.57.66-1.25 1.14-1.25l5-.05.05-9.8 5.25-.11c-.09-1.72.12-3.5.1-5.24l-.07-5.71 4.99-.03-.02-10.47h-10.46v-9.31c0-.6-.79-1.2-1.42-1.19l-18.15.04c-.3 0-.96.19-1.17.37-.26.22-.3.97-.32 1.41l-.09 3.55c-2.43.17-4.35.07-6.69.01l-3.9-.09-.17 5.23c-3.39.05-6.37-.02-9.73-.21-.5-.02-1.18.7-1.17 1.17.14 3.34.17 6.44.12 9.82l-10.48.33-.07 20.86-10.68-.08-4.15.07c-.2 0-.56-.02-.64.06-.12.13-.25.4-.26.57l5.04-.04-.04 15.25-5.3.07-.02 16.22-4.97.09-.3 5.03-5.41-.11-.43.4c.25.56.38 1.31.37 2.09l-.05 13.68-5.29.32-.3.35c.14.3.42 1.04.42 1.46l.04 24.35 5.17.21v10.78l5.56.07-.02 10.5 5.28.13v10.4l5.19.12.12 5.4 5.46.14c-.22 3.68-.29 6.89.03 10.52l4.95.3.06 8.64c0 .68.92 1.45 1.58 1.48l3.81.17-.03 5.43 12.66.11c.68 0 2.51.14 2.6.76l.13 6.51.6.12v-1.24c0-1.61.07-3.31-.02-4.91-.07-1.15-.51-3.44 0-4.45.1-.2.11-.68.09-.91l-.08-1.46c1.97 0 3.66.14 5.27-.43l.11-3.72c0-.21-.08-.76.13-.76l.66-.02 4.37-.11.03-4.59c0-.26.29-.87.65-.87l10.48-.08-.31-.66-5.16.17-.11-9.97-5.53-.14-.04-10.39-5.2-.17-.06-5.2-5.27-.23v-15.91l-5.28-.06-.05-10.74c-3.62-.24-6.93-.17-10.46-.12l-10.86.12.02-5.31 10.82-.29.07-10.2 10.22-.27.06-5.25 5.44-.15v-10.49l5.31-.06.04-10.64 5.27-.13-.04-21.42 11.11.08-.02 80.19 10.61.03.23 5.28 10.3-.04.04 5.28 5.52.02v5.32l5.23.32-.06 5.18-10.75.04-.06-5.3-10.4-.02-.14-5.28-10.46-.03-.04 15.9c1.6.43 10.74-.99 10.74.38l.02 10.24 10.32.04.06 10.57 5.52.16.08 8.67c.99.34 1.98.85 2.41 1.78l2.78.09v2.43l2.31.02 1.43 2.73 13.88.02c-.02-.19.27-.65.51-.65s.54.45.52.64h2.78v-9.52l-.27-.36c-.06-.08-.02-.29.08-.29l.5-.02 4.76-.15c.07-1.72-.08-3.73.15-5.2 0-1.08 5.2.12 5.22-1.2l.14-9.5c1.9-.19 3.58-.4 5.21-.37.04-3.45.32-6.85.27-10.58l5.27.04v-.04h.02v-58.31l-5.48-.11Zm-15.97-16.23-.07-5.64 5.2.04.07 5.62h-5.21Zm16.08 64.08-10.75.04v-10.84l10.82.02-.07 10.77Zm-.05-32.35-10.71-.07v-10.31l10.89.01z" class="cls-7"/><path d="M281.87 280.19c-1.78.32-3.28-.39-4.99.48l-.04 20.68c-1.82 0-3.64.13-5.45.36l-.11-.44.21-2.67c.12-1.49.06-3 0-4.49-.02-.65 0-1.37 0-2.02v-25.73c0-.37.04-.96.09-1.31.03-.24.26-.66.37-.89h9.9zM356.81 253.02c-.28.19-1.09.55-1.52.55l-9.24-.03-.25-5.45-10.38-.05V243l-21.09.01-.28 10.29-10.58.31.05 10.49 10.56.05v10.8l-10.53.15c-.09 2.18-.06 5.75.03 7.6v.59l-.11 2.19h-5.36c-.06 1.65-.02 4.25.07 5.59.01.16 0 .47 0 .62-.09.56-.19 1.6-.19 2.21l-.05 3.07-.04 4.61-5.25-.02-.04-15.96 2.21-.4c.17 0 .48-.02.64 0 .55.04 1.94.22 2.26-.31l.02-10.03 5.77-.21-.12-10.43-5.44-.2-.15-4.79-5.14-.14-.13-5.78 10.7-.02v-5.24l5.18-.08.09-4.93-5.23-.07.21-9.58c0-.33-.2-1.01-.44-1.2-.19-.15-.82-.33-1.09-.32l-9.5.27-.16-5.22-4.96-.04-.12 15.23-.05 21.79c-1.74.35-3.33.29-5.34.15l-.03-21.29.02-4.36.05-5.26v-2.41c.88-.44.88-2.19.02-2.63 0-.13.01-.35 0-.47 1.05-1.38.62-3.74.19-5.4.03-.12.05-.39.02-.51l8.75-.04c.55 0 1.42-.24 1.87-.4l10.46.06.42 5.53 10.38.04.2 4.96 21.11.04c.12 2.06.07 3.32.47 5.47l9.83.09v5.63l.72-.13h10.44l.04 10.07Z" class="cls-12"/><path d="m292.73 304.45-.09-2.88-3.85-.1c-.4 0-1.17.43-1.46.71l-.07 4.32-5.38.27.17 10.6-5.17.17-.14 5.09-5.47.06v5.38c-1.65.29-3.34.3-5.03 0l.04-10.55c1.84-.09 3.29.07 4.97-.33l.07-15.21-5.07-.05c-.22 1.08-.3 3.18-.28 4.38l.15.44c.24.72-4.59.06-5.23.73l-.15 25.81.06.63c-3.66.25-7.26.33-11.22.16l-.02-11.1c-1.4-.01-3.77-.13-4.98-.29l.04 10.82-5.34.1.04-5.35h-5.31l-.17 5.51 5.23.03c-.07 1.89-.12 3.38.04 5.15l5.58.05.02 5.53 5.48.11v58.31l5.23.04-.02 10.61 5.46.1-.11 16.18-21.38-.02v-5.51l5.14-.11.12-10.71c-1.63-.04-3.31.18-5.21.37l-.14 9.5c-.02 1.33-5.22.12-5.22 1.2-.23 1.46-.08 3.47-.15 5.2l-4.76.15-.31.67v9.53l-2.77-.01h-1.04l-13.88-.02-3.75.07.02-2.82v-2.43l-2.8-.09c-.55-.02-1.77.2-2.24-.19-.3-.24-.17-1.2-.17-1.59l-.08-8.67-5.52-.16-.06-10.57-10.32-.04-.02-10.24c0-1.36-9.14.06-10.74-.38l.04-15.9 10.46.03.14 5.28 10.4.02.06 5.3 10.75-.04.06-5.18-5.23-.32v-5.32l-5.52-.02-.04-5.28-10.3.04-.23-5.28-10.61-.03.02-80.19-11.11-.08.04 21.42-5.27.13-.04 10.64-5.32.06v10.49l-5.43.15-.06 5.25-10.22.27-.07 10.2-10.82.29-.02 5.31 10.86-.12c3.53-.04 6.83-.12 10.46.12l.05 10.74 5.28.06v15.91l5.27.23.06 5.2 5.2.17.04 10.39 5.53.14c1.74.04 3.45-.2 5.39.17.24 3.42.42 6.57-.12 9.64l.31.66 5.24.19-.12 21.19c-1.2 1.25-3.45-.09-4.88.9-.23.16 0 .7-.02.97.05.62-.1 1.63-.22 2.21-.05.22-.07.68-.1.99-.02.22-.53.14-.77.14l-4.01.08-.66 3.14c-.06.28-.09.84-.08 1.13l.06 1.28h5.22l.3-5.48 4.94-.13.08-4.37c1.72-.77 3.53-.91 5.57-.77v-10.68l5.28-.02.05 5.28 5.21.04-.02 10.61 5.27.02.13 5.5h26.84v-5.56l22.14.17 20.26.12.08 5.3 10.5.02v-5.29c-1.07-.21-2.98-.3-3.98-.29-.3 0-.87-.29-.88-.58v-1.02l-.06-3.64-4.64-.34c-.19-.02-.71.11-.69-.09.02-.18.06-.46.07-.59v-3.41l-.02-1.76.02-3.73-.07-5.89h-5.54l.05-16.14-5.12-.02-.16-12.34v-.73l.04-5.84v-21.12c.01-2.29-.16-4.84.17-7.06l-.24-.96.05-16 5.22-.37.29-4.98 4.83-.13c.51-.35.46-1.8.45-2.4l-.08-2.74 1.61.03 3.67-.07c.12-.76.33-1.61.33-2.12l-.04-3.48 4.99.02c.06-1.51.07-2.77.28-4.02l.11-.71c.03-.18.6-.32.8-.32l4.11.05c-.08-2.43-.11-4.56.07-6.76.04-.45 0-1.15-.01-1.62l-.07-2.47 4.35.04c.3-.25 1.02-.38 1.02-.74v-1.69Zm-128.32 66.29-5.28.06.06-5.12-5.41-.21.02-21 10.61-.07zm17.28 53.61-.02-4.98c1.61-.07 2.67-.06 4.28.14l.05 4.7zm68.48-21.36-5.27-.04c.05 3.73-.23 7.13-.27 10.58l5.57.12-.04-10.66Zm0-.04v.04h.02v-.04z" class="cls-12"/><path d="M388.54 397.72h-36.76l-.12-5.25-4.83-.32c-.16-.48-.46-.96-.83-1.27l-.03-3.35.32-.49c.06-.09-.38-.26-.45-.18l-.24.27-4.84-.07-.18-5.13c-1.71-.12-3.37-.15-5.14.12l-.04 143.94-5.49.07-.17 5.15-4.92.12-64.09.17c-1.35 0-2.94-.38-4.29-.18-1.98-.53-4.17-.3-6.29-.33-.05-10.56 0-31.51-.02-41.46-1.58-2.23-3.46-.49-4.94-.94-.42-.12-.53.79-.6 1.1-.97 4.05.49 7.21-.56 9.6l-4.34.05-.49-.31c-.09-.06-.25.38-.17.46l.28.24-.03 27.44c0 1.3-.14 2.78-.5 3.81-1.3-.04-2.66-.04-3.84.29-1.12-.08-2.49.14-3.6 0-1.08-.14-2.05-.24-3.16-.2l-7.17.21-55.77.05c-.44-1.22-.48-3.65-.38-5.4l-10.74-.17v-79.41l.34-.64 15.12-.07.37.43-.35 4.84-4.99.19v69.21l4.71.21 11.5.11 23.74.06 23.79-.07c.5-.21.36-1.5.35-2l-.02-3.19.02-6.15.08-9.87 5.26-.12V488.6l4.71-.12c.37-.01.15-1.14.3-1.48.27-.6-.02-1.92-.02-2.59l-.02-4.83.33-1.62c.22-.03.63-.11.84-.09 6.31.39 9.55-.54 15.29.12l.09 10.47 5.18.09v32.16l21.09-.03h41.69c.49 0 1.23-.47 1.35-.81.46-1.28.35-4.08 0-5.4-.12-.42-.08-1.31 0-1.74.12-.67.33-1.67.32-2.5l-.14-15.31.09-25.34-.3-2.49v-10.55l-43 .02-.07-10.82h.66l31.24-.07c3.4 0 6.88.32 10.23-.18.42-.06.99-.12.97-.45l-.09-1.17c-.02-.25 0-.71 0-.98l.05-53.56c0-.97-.21-1.79-.31-2.51-.07-.47.07-1.41.07-1.92l.27-24.7c.57.06 1.21.17 1.6.17 3.03.05 6.05-.14 9.03-.27 2.9-.13 8.05.11 10.74.14l-.02 8.98c0 .36.23 1.12.35 1.44.08.25.57.62.91.64l3.45.19-4.74.18c-.02 1.51 0 2.88.2 4.48l10.66.18-.07 10.59c2.12.31 3.79 0 5.8 0l23.16-.07c.93 0 1.8.12 2.54.3l.06 10.53Z" class="cls-12"/><path d="m324.86 616.58.28.3-.55 10.57-31.62.25c-1.28.28-.36 2.3-.37 3.15l-.03 7.33-.31.02-9.82.03c-.34-1.67-.3-3.32-.27-5.47l-5.62-.12.26-15.79 5.33.03V579.5l-5.53-.05-.09-5.26-5.29-.08v-32l42.78.01.06 10.47-5.3.2V606l5.22.08-.18 11.02 8.95.04c.68 0 1.57-.29 2.1-.56M217.72 632.63l-5.08.03-.19 5.52-4.99.05-.03-10.8-26.5.02-.19 5.25-5.41.16-.13-5.43c-.02-.85.27-2.28.06-3.08.85-2.17-.33-4.6.55-7.43l10.1-.12-.13-60.27c0-1.23.46-2.55.03-3.86H175.2v-.24l.05-10.21 33.78-.32 8.92.2v37.3l-5.26.13-.02 37.35 5.29.05-.25 15.71Z" class="cls-16"/><path d="m388.96 332.68-.62-.32c-.09-.04.06-.18.15-.22l.47-.19v-.51l-.66-.26c-.1-.04.17-.21.26-.26l.4-.21v-3.92l-.74-.31c-.1-.04.16-.17.27-.21l.47-.21v-1.43c-.32.07-.73-.75-.66-1.11.06-.29.43-.81.63-.88l-.02-10.17-5.58-.27v-9.89c-1.33-.4-3.61-.08-4.73-1.18-1-1-.35-3.47-.36-4.79l-.07-10.81-5.54-.07.02-10.48-5.28-.07-.04-10.3 7.53.17c-.14 2.33-.35 4.75.25 6.51.33.16.59-7.21-.31-7.24h-.05c-1.79.09-5.33.11-7.26.02l.04-10.73c-3.85-.24-7.26.24-10.74-.32-.28.19-1.09.55-1.52.55l-9.24-.03-.25-5.45-10.38-.05V243l-21.09.01-.28 10.29-10.58.31.05 10.49 10.56.05v10.8l-10.53.15c-.09 2.18-.06 5.75.03 7.6v.59l-.11 2.19h-5.36c-.06 1.65-.02 4.25.07 5.59h.48c.12.01.32.45.2.47l-.69.15c-.09.56-.19 1.6-.19 2.21l-.05 3.07-.04 4.61-5.25-.02.09 2.88v1.69c.01.37-.71.49-1.01.74l-4.35-.04.07 2.47c.02.47.05 1.17.01 1.62-.19 2.2-.16 4.34-.07 6.76l-4.11-.05c-.2 0-.77.14-.8.32l-.11.71c-.2 1.25-.22 2.51-.28 4.02l-4.99-.02.04 3.48c0 .51-.21 1.36-.33 2.12l-3.67.07c-.17 1.09-.57 2.21-1.53 2.71.01.6.06 2.05-.45 2.4l-4.83.13-.29 4.98-5.22.37-.05 16 .63-.03c.17 0 .43.63.27.71l-.65.28c-.33 2.22-.16 4.76-.17 7.06v21.12l-.04 5.84v.73l.16 12.34 5.12.02-.05 16.14h5.54l.07 5.89-.02 3.73c.24.02 1.09.4.92.66-.22.35-.61.83-.91 1.1v2.84l5.58 1-.33.59.05 3.64c.25.07.68.13.71.36l.18 1.25c1 0 2.92.08 3.97.29l.45.09c.17.03.23.53.23.74v4.45l31.23-.06c3.4 0 6.88.32 10.23-.18.03-.68.27-1.43.87-1.62-.02-.25 0-.71 0-.98l.05-53.56c0-.97-.21-1.79-.31-2.51-.07-.47.07-1.41.07-1.92l.27-24.7c.57.06 1.21.17 1.6.17l-1.38-.82c-1.11.79-2.55.5-3.99.49-2.36 0-4.57.26-6.95-.3l-.08-18.52-.04-1.56v-8.67c0-.55-.03-1.26 0-1.79.17-2.22.3-4.47.26-6.86l-.23-13.38-.03-.59v-19.81c.01-1.39.17-2.49.32-3.14.07-.27-.14-.84.12-.94.25-.1.84-.16.94.04l.45.86c.89-.02 3.01.42 3.4-.39.71-1.49-.02-3.05.48-4.74l4.76-.06v-4.45c.01-.22.06-.71.24-.75.11-.02.33-.06.45-.07 7.81-.35 23.31-.28 30.8-.25 1.98 1.93.09 3.63.86 5.53l10.46.04.28 30.89c1.34.19 3.16.42 4.05.72.4.14.93.97.93 1.41l.02 4.13.91.08c.25.02.71.04.98.03l.92-.02c.61-.01 2.05-.27 2.44.2.45.54.37 2.07.35 2.77-.01.91-.07 2.16-.06 3.1 1.07-.79.36 2.18 1.09 2.71 1.01.73 2.87 1.32 4.08 1.64l.1 1.03c-.26 1.16-.19 3.21.04 4.43.23.04.72.1.91.1l4.58.05v-.88Zm-32.12-68.62-.06-10.25 10.28.06.17 10.44c-3.44.25-6.83.16-10.39-.25" class="cls-7"/><path d="M399.83 333.47c-.06 0-.19.01-.25.02l-10.61.07v5.24l-5.54.05-.1-4.99-4.92.03-.25 26.24-5.25.11-.45 5.14-4.48.06c-.13 1.62-.68 3.36-.31 5.36l-21.09-.09c.08.25.57.62.91.64l3.45.19-4.74.18c-.02 1.51 0 2.88.2 4.48l10.66.18-.07 10.59c2.12.31 3.79 0 5.8 0l23.16-.07c.93 0 1.8.12 2.54.3l.81-.2c-.47-3.43-.21-6.96-.3-10.67l5.5-.04.09-5.2 5-.08.14-24.24c.02-3.47-.32-9.68.09-12.86.01-.11.02-.31.02-.43Zm-5.23 10.99-5.63-.03.03-5.62 5.61-.02-.02 5.67Z" class="cls-7"/><path d="m324.83 531.33-.13 21.31-5.1.02c-.13 1.18-.27 2.11-.27 3.26l.03 53.81c0 .52.19 1.25.44 1.47.2.17.81.32 1.08.32l4 .07-.03 4.99c-.53.26-1.42.56-2.1.56l-8.95-.04.18-11.02-5.22-.08v-53.21l5.29-.2-.06-10.47h-42.77l-.01 31.99 5.29.08.09 5.26 5.52.05v37.38l-5.32-.03-.26 15.79 5.62.12c-.04 2.15-.08 3.8.27 5.47-.15 0-.45.01-.6.05-1.41-.59-3.13-.38-4.67-.06-.52-1.56-.25-3.29-.58-4.92-.05-.25-.28-.64-.55-.63l-1.09.05h-7.98c-.08-.01-.23.04-.31.03l-.27-.02-.11-15.54 5.05-.11-.05-37.3-5.15-.53-.12-10.37-5.11-.18-.14-37.19 64.09-.17Z" class="cls-2"/><path d="m212.638 296.1.006-.14.12.005-.006.14zM223.21 238.13l-.04 15.06v.33l-4.37.09c-.38 0-.71-.65-.92-.89.07-1.22.46-2.78-.41-3.59.25-.97-.17-2.34-.04-3.29.34-2.57.32-5.25.25-8.08l-4.94-.32v-5.3l-16.17.02v10.87l-5.02-.02.02 5.02 10.43-.02.07 5.27h5.09l.02 10.79-5.1.24-.03 10.39 5.28.08-.15 10.56 5.48.24-.04 10.39-5.45.03-.03-10.54-4.67.06-.63-.62v-4.08c-.01-1.53-.02-3.59-.45-5.09-.34-1.2-4.43.29-5.15-1.09l.25-5.07-5.05.14-.07-5.71 4.99-.03-.02-10.47h-10.46v-9.31c0-.6-.79-1.2-1.42-1.19l-18.15.04c-.3 0-.96.19-1.17.37-.26.22-.3.97-.32 1.41l-.09 3.55c-2.43.17-4.35.07-6.69.01l-3.9-.09-.17 5.23c-3.39.05-6.37-.02-9.73-.21-.5-.02-1.18.7-1.17 1.17.14 3.34.17 6.44.12 9.82l-10.48.33-.07 20.86-10.68-.08.05-10.53 5.13-.06.12-10.56 5.2-.28.35-10.56 10.12.12c.85-3.24-.55-9.48.54-10.74h10.15l.35-5.59 10.38.15c.31-1.72.35-3.62.35-5.45l12.01-.16 9.1.16.09-5.03 10.21-.06c.46-1.92.39-3.39.33-5.43l10.85-.13c.62.35 1.6.46 2.72.46q.6 0 1.23-.03c.78-.04 1.59-.1 2.36-.14.14 0 .27-.01.41-.02s.27 0 .4-.01c.73-.02 1.41 0 1.96.08a3.1 3.1 0 0 1 .84.24c.12.06.22.12.3.2.03.02.05.04.07.07.03.03.06.06.07.09.03.03.06.07.07.11.02.03.04.07.05.11.02.04.03.09.04.15 0 .02 0 .04.01.06 0 .05.01.11.01.16s.14 3.78.14 3.78l-.04 10.22c0 .09.01.24.01.34.62.83 1.45.28 2.2.26.87-.03 1.87.03 2.75.04l.29.68ZM228.63 322.77l-5.42-.07-.03-4.94-5.41-.13-.07-10.64-5.2-.14.26-10.74 5.25-.08-.05 10.58 5.26.05.01 10.8 5.35.04z" class="cls-12"/><path d="M165.31 531.54c.5.56 1.19.68 2.17.68l51.32-.08c3.32 0 6.31-.69 9.39-.27l.11 4.78c.03 1.18 0 2.4 0 3.57v6.66l-.09 26.87h-3.8c-.46-.01-1.18.57-1.18.98l-.02 38.06c-.27 1.09-.77 2.98.21 3.95.88.87 2.81.32 3.92.38l.84.05-.07 15.54c-3.37.03-6.79-.22-10.1.24l-.29-.31.25-15.71-5.29-.05.02-37.35 5.26-.13v-37.3l-8.92-.2-.39-.35h-32.51c-.34-.01-.88.4-.88.67l-.05 10.21-10.76.02.05-20.87.83-.02Z" class="cls-2"/><path d="M266.96 632.7h7.98c.03.58 1.05.67 1.64.6.33 1.63.06 3.36.58 4.92 1.15.65 3.51.32 4.67.06.15-.03.45-.05.6-.05l9.82-.03.17 10.84 11.09-.04 20.98-.04h11.21l10.24.04c3.6.02 7.2.1 10.79-.16-.43 3.55 1.77 7.03-1.43 10.82-16.11 0-50.11.05-67.24-.02v-3.57c0-.38-.34-.98-.67-1.14l-.24-.25c-.16-.3-.8-.72-1.19-.7l-3.58.17.09-4.15c.02-.84-.73-1.51-1.57-1.51l-14.58-.03.07-15.72.27.02c.07.17.17.13.31-.04Z" class="cls-8"/><path d="m153.88 444.49-.39 1.27c-.68 0-1.74-.1-2.37.01-2.3-.59-4.96-.28-7.53-.25l-.14-10.71c-1.28-.14-2.33-.18-3.28.14-1.12-.04-2.55-.02-3.63 0-1.04-.45-2.49-.36-3.76-.26l-.08-10.75-5.05-.06c-.07-1.52.25-3.5-.23-4.78-.12-.94-4.64.17-4.94-.76-.46-1.39.79-4.58-.45-4.57v-5.2l.18-.63-5.24.07-.14-5.15-5.43-.19c-.04-.4-.1-1.07-.08-1.46.13-2.93.07-5.74-.06-8.96l-4.87-.04c-.02-3.4.32-6.81-.14-10.16-.22-1.66-4.95.05-5.16-.86-.33-1.44.68-5.54-.27-6.13.06-.29.04-.88 0-1.17.53-.37.28-1.4 0-1.92-.05-.23-.18-.65-.24-.88a6 6 0 0 0-.22-.6c-.04-.11-.42-.08-.71-.08l-8.92.08s-.05 0-.07-.01c-.02 0-.05-.02-.07-.03-.04-.02-.07-.06-.11-.09-.25-.24-.45-.76-.48-1.02v-7.54l.35-.35v-15.8l-.36-.35.04-5.54c.69-.17 1.64-.35 2.46-.35l7.79.07c.14.3.42 1.04.42 1.46l.04 24.35 5.17.21v10.78l5.56.07-.02 10.5 5.28.13v10.4l5.19.12.12 5.4 5.46.14c-.22 3.68-.29 6.89.03 10.52l4.95.3.06 8.64c0 .68.92 1.45 1.58 1.48l3.81.17-.03 5.43 12.66.11c.68 0 2.51.14 2.6.76l.13 6.51.6.12.04 7.41Z" class="cls-12"/><path d="m228.2 637.32-.05 11.47-8.87.05c-.32 0-1.11.21-1.16.51l-.17.94-.69.85c-.18.22.51 1.03.69.79v2.1l-3.63.07c-.39 0-1.08.11-1.42.25-.28.11-.49.91-.49 1.24l-.05 3.53c-1.47.67-.11-3.47-.59-5.3-7.07-1.59-5.88 2.74-11.29 1.86-2.09-.34-4.3-.29-6.44.23-1.3.32-2.97-.97-4.04-.78-2.65.46-4.44.31-7.22-.42-1.03-.27-3 .43-4.23.49l-12.56.56c-2.84.13-5.39-.52-8.2-.97-6.53-1.05-9.52 1.41-10.33-3.71-.11-.71-2.41-1.11-2.63-.45-.79 2.38-.74 5.59-.41 8.18l-1.05.26-.07-10 1.81-.04h.99l7.97-.21 10.3-.04 9.61.32c3.92.13 7.87.88 11.47-.06l10.84-.04 11.05.03.05-7.43c1.22.99 2.45.19 3.9-.05 2.82-.48 5.97-.18 8.54-1.7 1.36-.8 2.04-1.63 3.5-.95 3.87 1.8.46 3.81 4.19 5.96l.06-6.95c0-.14-.01-.65.11-.64l.49.05Z" class="cls-8"/><path d="M410.33 336.99c.02.37 0 1.1 0 1.49l-.27 32.32-4.92-.1c-.18 0-.33.51-.33.69l-.04 4c-.39.62-1.24 1-2.04.99l-2.87-.04.03 5.27c0 1.29-.42 3.69-.33 4.92l-7.11.03c-.12 0-.57.14-.66.2-.1.07-.06.17-.04.36l-2.46-.13c-.47-3.43-.21-6.96-.3-10.68l5.49-.04.09-5.2 5-.08.14-24.24c.02-3.46-.32-9.67.09-12.85l10.32-.07c0 1 .09 2.37.21 3.17Z" class="cls-12"/><path d="m185.77 556.52.13 60.27-10.1.12c.03-.09-.07-.34-.17-.36l-.36-.07-.03-1.44s.41-.29.6-.41v-48.56l-.6-.41v-1.48c1.43-.25-.14-4.52 1.06-5.2l.38 3.78c2.36.29 5.5.48 7.4-1.24 1.18-1.07.78-5.17 1.2-5.1l.48.09Z" class="cls-2"/><path d="m399.58 333.48-10.61.07v-8.94l-.03-1.99-.02-10.17-5.58-.27v-9.89l.05-5.58-5.14-.39-.07-10.81-5.54-.07.02-10.48-5.28-.07-.04-10.3 7.53.17c-.14 2.33-.35 4.75.25 6.51l-.04 1.23-.81-.02c-.29-.01-.37 2.16.01 2.15h.82l.52.04c0 .17.25.73.43.6l.58-.4.6-.24.54.09.07.53c-.41.94-.75 2.44.3 2.87l.03 7.34 5.22.06.02 7.34c0 .78-.33 2.57.29 3.06 1.37 1.07 4.67-.6 4.96 1.41l.33 8.88c0 .19-.06.67.12.67h4.85l.07 7.06.07 3.6 5.14.19c.54 5.18.24 10.49.32 15.73Z" class="cls-12"/><path d="M388.97 333.56v5.24l-5.54.05-.1-4.99-4.92.03-.23-10.3c1.07-.79.36 2.18 1.09 2.71 1.01.73 2.87 1.32 4.08 1.64l.1 1.03c-.26 1.16-.19 3.21.04 4.43.23.04.72.1.91.1l4.58.05ZM394.62 338.78l-.02 5.68-5.63-.04.03-5.61z" class="cls-12"/><path d="M212.35 659.12c-.23.17-.76.53-1.19.53h-67.21c-.12 0-.52-.14-.53-.23l-.02-.35 1.05-.26c-.34-2.59-.39-5.8.41-8.18.22-.66 2.52-.26 2.63.45.81 5.13 3.79 2.67 10.33 3.71 2.8.45 5.36 1.1 8.2.97l12.56-.56c1.22-.05 3.2-.76 4.23-.49 2.77.73 4.57.88 7.22.42 1.07-.19 2.74 1.1 4.04.78 2.14-.52 4.35-.57 6.44-.23 5.4.87 4.21-3.46 11.29-1.86.48 1.82-.89 5.97.59 5.3Z" class="cls-7"/><path d="m121.96 286.09-.04 15.25-5.3.07-.02 16.22-4.97.09-.3 5.03-5.41-.11c.32-1.92.06-3.91.1-5.82l.06-2.75c.61-2.1.27-4.5.29-6.94 1.45.06 3.36.2 4.71-.26.47-.16.19-1.44.2-1.92l.02-8.27.43-.6 4.55-.05.5-.02c.11 0 .14-.2.07-.29l-.26-.37.3-9.25 5.04-.04Z" class="cls-12"/><path d="M356.73 648.83c-3.58.27-7.19.18-10.79.16l.09-10.72-10.57-.08.02-.25c.32-.7.5-1.97-.29-2.25l-.07-7.97-4.94.03c-1.77.01-3.62-.4-5.31.2l-.28-.51.55-10.57h9.07c.53-.01 1.15.66 1.15 1.19l-.04 9.46 10.65.02.04 10.72 10.83-.03c-.25 3.64.29 7.17-.12 10.59ZM154.16 638.61l-.06 10.21-7.97.21c-.14-.08-.85-.08-.99 0l-1.81.04c-.02-3.38-.39-6.82-.22-10.25.88-.29 1.89-.34 2.97-.32l8.08.12ZM164.66 627.96l.05 10.28-10.48.02-.1-.39.02-9.82zM174.6 617.19c1.52 0-.52 2.73.65 7.15.21.8-.08 2.23-.06 3.08l-10.23-.03c-.05-.76-.26-1.8-.26-2.54v-7.3c.36-.16.91-.4 1.65-.4z" class="cls-2"/><path d="m185.77 556.52-.48-.09c-.41-.08-.02 4.03-1.2 5.1-1.91 1.73-5.04 1.53-7.4 1.24l-.38-3.78c-1.2.69.37 4.96-1.05 5.2l-.05-11.53h10.61c.43 1.32-.03 2.64-.03 3.87Zm-9.66-3.36c0-.06-.05-.11-.11-.11s-.11.05-.11.11.05.11.11.11.11-.05.11-.11" class="cls-10"/><path d="m105.88 325.14-.05 13.68-5.29.32v-.33l.06-15.42c1.56-.45 3.25-.42 4.91-.33.25.56.38 1.31.37 2.09Z" class="cls-12"/><path d="M154.15 446.38v79.41l10.74.17c-.1 1.74-.06 4.18.38 5.39.02.05.03.13.05.2l-.83.02-.1-5.41c-3.84.21-7.1.3-10.85.06V448.9c0-1.05.09-1.77.31-2.51h.31Z" class="cls-6"/><path d="m228.2 531.08.65.57c-.06 0-.18 0-.24.01l-.43.2c-3.08-.42-6.07.27-9.39.27l-51.32.08c-.98 0-1.67-.12-2.17-.68a1 1 0 0 0-.05-.2l55.77-.05 7.17-.21Z" class="cls-10"/><path d="m292.7 220.95-10.61-.02.13-4.59 10.05.07c.1 0 .29.05.4.07l.04 4.47Z" class="cls-2"/><path d="M175.25 615.05v-49.38l.59.41v48.56c-.18.13-.58.41-.59.41" class="cls-10"/><path d="M136.53 434.95c-1.1.03-3.72 1.08-4.09-.48-.79-3.28-.03-6.72-.16-10.2l-5.06-.02.02-4.97-5.13-.12-.09-5.39c1.24-.01 0 3.18.45 4.57.3.92 4.82-.19 4.94.76.48 1.28.16 3.26.23 4.77l5.05.06.08 10.75c1.28-.1 2.73-.19 3.77.27Z" class="cls-6"/><path d="m228.15 648.78.05-11.46-.09-4.62.06-15.54.66.04v31.57z" class="cls-14"/><path d="M111.3 401.2c-.16-.05-.2-.07-.31-.08s-.28-.55-.28-.71l.21-7.76-5.07-.08-.02-10.69-5.19-.18c-.17-1.94-.15-5.04.16-6.64.94.6-.07 4.7.27 6.14.21.9 4.94-.8 5.16.85.45 3.35.11 6.76.13 10.16l4.87.04c.14 3.21.19 6.02.06 8.95Z" class="cls-6"/><path d="M287.15 654.67c-1.41-.3-3.7.67-4.86-.48-1.1-1.08-.26-3.32-.36-5.11l-14.71.02c-.27 0-.91-.4-.91-.66l14.58.03c.84 0 1.59.67 1.57 1.51l-.09 4.15 3.58-.17c.39-.02 1.04.41 1.19.7Z" class="cls-3"/><path d="M151.12 445.77c-1.26.22-7.84.87-7.96-.41-.34-3.53-.11-6.71-.03-10.3l-2.97-.12c.96-.32 2.01-.28 3.29-.14l.14 10.71c2.57-.03 5.23-.34 7.53.25Z" class="cls-6"/><path d="m164.97 627.39-.31.56-10.51.09c0-.18.14-.71.36-.71l9.81.19.38-2.67c0 .74.22 1.78.26 2.54Z" class="cls-14"/><path d="M111.3 304.96c0 .48.28 1.75-.19 1.92-1.35.46-3.27.32-4.72.26-.02 2.43.32 4.84-.29 6.94.05-2.37-.36-4.65-.2-7.39l4.87-.05c.07-.59.27-1.52.54-1.67ZM105.94 322.65l-.43.4c-1.66-.09-3.34-.11-4.91.33 0-.33.47-.99.81-.99l4.22.02c.26-2.02-.25-3.91.4-5.59-.04 1.92.22 3.9-.1 5.82ZM100.56 371.07l-10.37-.11c-.42-.25-.21-1.36-.21-1.79-.08.17.31 1.31.73 1.3l8.93-.08c.29 0 .67-.02.71.08.07.16.17.43.21.59Z" class="cls-6"/><path d="M217.87 222.82c.03-2.69-8.08-.13-10.55-1.54l.05-.29 10.62.18c-.06.76-.13 1.31-.12 1.66Z" class="cls-1"/><path d="m154.13 637.87.09.38c.02.09-.06.26-.06.36l-8.08-.12c-1.09-.02-2.09.03-2.97.32l-.04-.65 11.07-.29Z" class="cls-14"/><path d="M100.55 338.81v.33l-.31.35-7.79-.07c-.82 0-1.76.17-2.46.35l-.09-.76 10.65-.19Z" class="cls-6"/><path d="M292.74 221.26c-.45.16-1.32.4-1.87.4l-8.75.04-.1-.46c.01-.07.06-.24.06-.32l10.61.02c0 .07.02.22.04.31Z" class="cls-7"/><path d="m174.96 616.55-.35.65-8.25-.04c-.73 0-1.29.24-1.65.4l-.37-.52c-.1-.14.69-.46.98-.46l9.65-.02Z" class="cls-14"/><path d="m122 408.56-4.14.02c-2.82.01-.67-4.39-1.59-5.18s-4.71.68-4.88-.74l5.43.19.14 5.15 5.24-.07z" class="cls-6"/><path d="M244.05 499.31c1.05-2.4-.4-5.55.57-9.6.64 2.73.27 6.62.1 9.28-.15.12-.54.32-.67.32" class="cls-5"/><path d="M175.8 616.91c-.89 2.84.3 5.26-.55 7.43-1.18-4.42.87-7.15-.65-7.15l.35-.65c.09 0 .24-.08.32-.07l.36.07c.09.02.2.27.17.36Z" class="cls-10"/><path d="M399.55 386.52c0 .13-.02.44-.05.71l-7.76-.11c-.02-.19-.06-.3.04-.36.09-.06.54-.2.66-.2l7.11-.03Z" class="cls-7"/><path d="M228.29 546.88v-6.66s.39.31.55.43v5.79c-.16.12-.56.44-.55.43Z" class="cls-14"/><path d="M256.46 531.33c-1 .15-6.28.99-6.29-.33 2.12.02 4.3-.2 6.29.33" class="cls-2"/><path d="m346.33 242.95-.71.13v-5.62c.32 0 .64.81.64 1.15l.06 4.34Z" class="cls-7"/><path d="m228.29 536.65-.11-4.78.43-.2c.16 1.64.8 3.76-.32 4.98M228.21 573.75c0 .19.06.67-.13.66h-.73c-1.5-.04-2.86-.05-4.12.31 0-.41.73-.99 1.18-.99h3.8Z" class="cls-14"/><path d="M288.06 659.63h-.7l.03-4.71c.33.16.68.76.68 1.14v3.57Z" class="cls-3"/><path d="m214.32 654.1-1.24.94c-.66.5.88 2.91-.72 4.08l.05-3.53c0-.34.21-1.13.49-1.24.34-.13 1.03-.24 1.42-.25M227.34 617.12c-1.11-.06-3.04.49-3.92-.38-.98-.97-.47-2.86-.21-3.95.44 1.07.35 2.4.31 3.82l3.11-.08c.14 0 .66.13.67.24l.04.36Z" class="cls-14"/><path d="M238.8 531c-.52 1.5-2.74.36-3.84.29 1.18-.33 2.54-.33 3.84-.29M231.36 531.29c-.56.24-1.87.37-2.51.37l-.65-.57c1.11-.03 2.08.06 3.16.2" class="cls-6"/><path d="M378.17 275.28v2.87c-1.06-.43-.72-1.93-.31-2.87z" class="cls-7"/><path d="M100.8 373.88c-.15-.56-.26-1.47 0-1.93.28.53.53 1.55 0 1.93" class="cls-6"/><path d="M346.84 392.15c-.39.1-.61.2-.65-.04-.07-.41-.18-.99-.18-1.23.38.31.67.79.84 1.27ZM217.95 650.29v1.65c-.18.24-.87-.57-.69-.79l.69-.85ZM154.48 445.74l-.33.64h-.31l-.35-.62.39-1.27z" class="cls-7"/><path d="M389.69 306.89h-.55c-.19 0-.12-.47-.13-.66.21.2.59.58.67.66Z" class="cls-14"/><path d="m111.76 296.1-.43.59-.19-.37c-.04-.09 0-.21.11-.22z" class="cls-6"/><path d="m116.31 296.05.31-.67.26.37c.06.08.03.29-.08.29l-.5.02ZM345.97 387.54l-.37-.4.24-.27c.07-.08.51.09.45.18l-.31.49Z" class="cls-7"/><path d="m239.72 499.35-.38.39-.28-.24c-.08-.07.08-.51.17-.45l.49.31Z" class="cls-5"/><path d="M180.21 415.66c-.52 3.3-.18 6.47-.24 9.77l-.16 9.13-4.6.35-.56 5.2-4.01.08-.66-.41c-.38 1.32-.53 2.54 0 3.55-.06.28-.09.84-.08 1.13-4.98.76-10.02.68-15.41.7l-.05-9.22-.6-.1c0-1.61.07-3.31-.02-4.91.53-1.35.54-3.1 0-4.45.1-.2.11-.68.09-.91.87-1.76 3.01-.55 5.58-1.13l-.39-.76.11-3.72c.27-.24.55-.51.79-.78l4.37-.11.03-4.59c.58-.16 1.41-.34 2.11-.34l12.11-.02c.87 0 1.73.61 1.58 1.54Z" class="cls-14"/><path d="M244.37 322.7h-5.02l-.29-10.46-5.17-.16.14-16.23-5.25-.08-.12-9.85.49-.08 9.86-.06c-.29 7.44-.41 14.01-.02 21.17 1.89.19 3.64.22 5.36.21l.04 15.54ZM228.83 285.58l-5.63-.18-.12-6.64.08-1.25-.09-2.77.04-1.99-.02-4.56.06-1 .03-10.95c0-1.17.02-1.79.38-2.33l4.42-.14c.53.24.58 1.76.59 2.34l.22 29.1c0 .09.02.3.04.38ZM244.9 381.62l-.07 10.77-10.75.04v-10.84zM244.96 349.67l-.18 10.37-10.71-.07-.02-10.31z" class="cls-12"/><path d="M202.76 288.93v32.48c0 1.24-.98 2.19-2.16 2.18l-10.82-.08-7.75-.24c-1.17-.04-2.11-.55-2.11-1.84v-35.27c-.01-.57.66-1.25 1.14-1.25l5-.05v.65h-5.3l-.02 37.23h21.14v-37.2l-8.82.02c-.63 0-1.2-.22-1.41-.71l10.2.06.63.62c.16 1.05.27 2.15.27 3.41Z" class="cls-1"/><path d="m191.6 279.3-.22 5.56c-1.55.54-3.32.65-5.32.65v-.65l.05-9.8 5.25-.11z" class="cls-9"/><path d="m175.22 412.87-5.16.17-.11-9.97c1.74.04 3.45-.2 5.39.17.24 3.42.42 6.57-.12 9.64Z" class="cls-8"/><path d="m180.77 413.71-.12 21.19c-1.2 1.25-3.45-.09-4.88.9-.23.16 0 .7-.02.97l-.22 2.21c-.05.22-.07.68-.1.99-.02.22-.53.14-.77.14l.56-5.2 4.6-.35.16-9.13c.06-3.31-.29-6.48.24-9.77.15-.94-.71-1.54-1.58-1.54l-12.11.02c-.7 0-1.53.18-2.11.34 0-.26.29-.87.65-.87l10.48-.08 5.24.19Z" class="cls-10"/><path d="m233.96 328.32-5.21-.01-.07-5.65 5.21.04z" class="cls-12"/><path d="m196.52 269.58-.25 5.07-4.9.31c-.09-1.72.12-3.5.1-5.24z" class="cls-9"/><path d="M169.95 445.74c-.09 0-.26-.05-.35-.07l-15.12.07-.61-1.25-.04-7.41v-1.24l.6.1.05 9.22c5.39-.02 10.43.06 15.41-.7z" class="cls-10"/><path d="m211.17 440.12-3.74.07.02-2.83 2.3.03z" class="cls-8"/><path d="M159.48 424.44c-2.56.59-4.71-.62-5.58 1.13l-.08-1.46c1.97 0 3.66.14 5.27-.43z" class="cls-10"/><path d="M204.65 434.85c-.55-.02-1.77.2-2.24-.19-.3-.24-.17-1.2-.17-1.59.99.34 1.98.85 2.41 1.78" class="cls-8"/><path d="M153.82 430.93c-.07-1.15-.51-3.44 0-4.45.54 1.35.53 3.1 0 4.45" class="cls-10"/><path d="M217.89 252.73c-.61-.71-.69-2.5-.41-3.59.87.81.48 2.38.41 3.59" class="cls-8"/><path d="M159.99 419.18c-.24.27-.53.55-.79.78 0-.21-.08-.76.13-.76z" class="cls-10"/><path d="M226.09 440.14h-1.04c-.02-.18.27-.64.51-.64s.54.45.52.64ZM229.17 429.95l-.31.67-.27-.36c-.06-.08-.02-.29.08-.29z" class="cls-8"/><path d="m324.87 467.12.3 2.49-.09 25.34-.31.08c-.26.07-.47 16.97.12 17.73-.08.43-.12 1.32 0 1.74-.54 1.67-.55 3.73.01 5.39-.12.35-.86.82-1.35.81h-41.69l-.39-.61-10.49.11.19-8.99-.1-22.51-5.08-.12.06-10.94-5.34-.03v-9.28c0-.55-.62-1.21-1.17-1.2l-9.29.09v10.2l-9.27-.08c-.17 0-.67.14-.7.25l-.09.31c-.21-.01-.62.06-.84.09-.28.04-.76.17-.7.4.11.37.36.93.36 1.23l.02 4.82c-.44.71-.46 1.92.02 2.59-.15.34.07 1.47-.3 1.48l-4.7.12h-5.26v10.8l-.09 9.87c-1.39-.58-1.2 6.2-.01 6.15l.02 3.2c-.59.11-1.41 1.02-2 1.21-2.73.9-5.6.29-8.48.36-2.11.06-13.27-.03-13.4 0-.18.04-.25.32-.27.51l-23.74-.06c-1.1-.41.84-4.55-.54-5.16-1.53-.68-3.25.01-5.06-.45v-37.27l10.67-.12.22-4.86 4.87-.13.12-5.41 5.49-.13.04-10.46 5.43-.18.07-5.45h26.57l.12-5.28h42.43v10.78l5.28.07.13 5.39 5.3.26.14 4.94 42.73-.07Z" class="cls-5"/><path d="M282.46 441.31v4.45l-.66.01v-5.29l.43.09c.17.03.23.53.23.74" class="cls-8"/><path d="m281.8 445.78.08 10.82 43-.02v10.55l-42.73.07-.14-4.94-5.3-.26-.13-5.39-5.28-.07v-10.77h-42.43l-.12 5.28h-26.57l-.07 5.45-5.43.18-.04 10.46-5.49.13-.12 5.41-4.87.13-.22 4.86-10.68.12v37.27c1.81.46 3.53-.23 5.06.45 1.38.61-.56 4.75.54 5.16l-11.5-.11-4.7-.21v-69.21l4.99-.2.35-4.84-.03-.36h5.22l.3-5.48 4.94-.13.08-4.37c1.72-.77 3.53-.91 5.57-.77v-10.68l5.28-.02.05 5.28 5.21.03-.03 10.61 5.27.02.13 5.5h26.84v-5.57l22.14.17 20.26.12.08 5.3 10.5.02Z" class="cls-8"/><path d="m356.8 285.45-31.61.03-.29.71v6.99c.48 2.4.48 12.29-.03 14.4l.02 14.43c.54 1.9.25 4.03.19 6.05-.08 2.93 0 5.89 0 8.82v20.93l.02 1.78 1.38.82c3.03.05 6.05-.14 9.03-.27l.06-5.29c.02-2.02-1.54-3.18-3.27-4.48l5.24-.1c.11-.14.42-.56.42-.56l-7.16-.03c-.2 0-.61-.18-.61-.38l-.07-10.44 15.87.13c.4-3.5.4-7.18 0-10.67l-15.83-.02-.04-10.59 26.68-.04.02-32.22Zm-26.65 16.13-.07-10.84 10.44-.04.04 10.64z" class="cls-6"/><path d="m281.87 520.71-21.1.03v-32.17l-5.18-.09-.09-10.47c-5.75-.65-8.98.28-15.3-.12l.09-.31c.03-.1.53-.25.7-.25l9.28.08v-10.2l9.28-.09c.55 0 1.18.65 1.18 1.2v9.28l5.33.03-.06 10.94 5.08.12.1 22.51-.19 8.99 10.49-.11.39.6Z" class="cls-8"/><path d="M367.98 365.44c-.13 1.62-.68 3.36-.31 5.36l-21.09-.09c-.12-.32-.35-1.08-.35-1.44l.02-8.98c.07 0 .22-.01.3-.02.77.6 1.77-.05 2.57-.05h15.44c.79 0 1.98-.1 2.55-.35 1.45-.63-.35-4.78 1.07-5.17.09 3.73.09 7.25-.2 10.74" class="cls-2"/><path d="m234.09 488.63-.01 10.69-5.26.11.01-10.81z" class="cls-8"/><path d="M348.79 359.9c-.71-.01-1.6.12-2.25.37-.08 0-.23.02-.3.02-2.69-.02-7.83-.27-10.74-.14l.06-5.29.45-.07c.79 1.61-.5 4.25 2.15 4.24l9.04-.02c.53 0 1.3.55 1.59.89" class="cls-14"/><path d="M228.74 518.64c0 .5.14 1.79-.35 2l-23.79.07c.02-.19.1-.47.27-.51.12-.03 11.28.06 13.4 0 2.88-.08 5.74.54 8.48-.36.59-.19 1.41-1.1 2-1.21ZM325.09 494.96l.14 15.32c0 .82-.2 1.83-.32 2.5-.6-.76-.39-17.66-.12-17.73l.31-.08ZM228.74 509.3v6.15c-1.2.06-1.39-6.72 0-6.15M324.91 519.9c-.56-1.66-.55-3.72-.01-5.39.36 1.31.47 4.11.01 5.39M239.09 487.03c-.48-.68-.46-1.88-.02-2.59 0 .68.29 1.99.02 2.59" class="cls-8"/><path d="M324.89 445.07c.02.33-.55.39-.97.45.03-.68.27-1.43.87-1.62l.09 1.17Z" class="cls-7"/><path d="m239.37 477.99-.33 1.63c0-.29-.26-.85-.36-1.23-.06-.23.42-.36.7-.4Z" class="cls-8"/><path d="m169.98 446.09-.38-.43c.09.02.26.07.35.07z" class="cls-7"/><path d="m324.59 627.45.28.51c-.13 1.66-.16 3.15-.1 5.01l5.45.04-.04-5.25 4.94-.03.07 7.97c0 .76-.16 1.76.29 2.25l-.02.25c0 .08-.05.25-.05.33l-10.78-.22h-21.18l-10.87-.14.03-7.33c.4-.9.42-2.08.37-3.15l31.62-.25Z" class="cls-1"/><path d="M303.45 638.32c-.25 3.54-.1 7.12.07 10.68l-11.09.04-.17-10.84.31-.02 10.87.15ZM292.6 630.84c0-.85-.91-2.87.37-3.15.05 1.07.03 2.25-.37 3.15" class="cls-3"/><path d="m175.2 627.43.12 5.43 5.41-.16.19-5.25 26.51-.02.03 10.8-10.9.09h-21.34l-10.51-.08-.05-10.28.31-.57z" class="cls-1"/><path d="m228.11 632.7.1 4.62-.49-.05c-.12-.01-.11.49-.11.64l-.06 6.95c-3.73-2.15-.31-4.17-4.19-5.96-1.46-.68-2.14.15-3.5.95-2.57 1.52-5.72 1.22-8.54 1.7-1.44.24-2.67 1.04-3.9.05l.04-3.36 4.99-.05 5.49.04.07-5.28c3.31-.47 6.73-.21 10.1-.24Z" class="cls-5"/><path d="m217.72 632.63.29.31-.07 5.28-5.49-.04.19-5.52zM209.04 541.89l-33.78.32c0-.27.55-.68.88-.68h32.51z" class="cls-10"/><path d="M371.67 311.9c-1.09-.07-2.96.07-3.93.47-.04.01-.07.02-.12.05-.32.15-.73.76-.72 1.11.02.38.38 1.11.64 1.19a37 37 0 0 1-.21 2.77l-10.55.18.02-32.22-31.61.03-.46.03c-.12 0-.25.38-.16.45l.32.23v6.99c-.01 3.76-.81 7.6-.36 11.55l.33 2.85.02 14.43c0 1.94-1.16 4.43.19 6.05-.08 2.93 0 5.89 0 8.82 0 0-.37.31-.52.43v20.08c.15.13.52.43.53.43v1.78c-1.1.79-2.54.5-3.98.49-2.36 0-4.57.26-6.95-.3l-.08-18.52-.04-1.56v-8.67c0-.55-.03-1.26 0-1.79.17-2.22.3-4.47.26-6.86l-.23-13.38-.03-.59v-19.81c.01-1.39.17-2.49.32-3.14l1.51-.04c.89-.02 3.01.42 3.4-.39.71-1.49-.02-3.05.48-4.74l4.76-.06c.19 0 .69-.12.69-.33v-4.93c7.81-.35 23.31-.28 30.8-.25 1.98 1.93.09 3.63.86 5.53l10.46.04.28 30.89c1.34.19 3.16.42 4.05.72ZM367.23 264.31c-3.44.25-6.83.16-10.39-.25l-.06-10.25 10.28.06z" class="cls-12"/><path d="m383.39 296.72-.04 5.58c-1.35-.4-3.62-.08-4.74-1.18-1-1-.35-3.47-.36-4.79z" class="cls-8"/><path d="m372.62 317.44-1.07-1.14c-.32-.35-1.63.12-2.12.06-2.01-.28-.68-4.27-1.69-3.99.97-.4 2.83-.55 3.93-.47.4.14.93.97.93 1.41z" class="cls-10"/><path d="M325.21 274.97v4.93c0 .22-.5.33-.69.33v-4.45c.01-.22.06-.71.24-.75.11-.02.33-.06.45-.07ZM314.37 285.47c.07-.27-.14-.84.12-.94.25-.1.84-.16.94.04l.45.86zM388.96 324.62c-.32.07-.73-.75-.66-1.11.06-.29.43-.81.63-.88z" class="cls-8"/><path d="m374.51 317.55-.03.65c0 .16-.66.22-.71.07l-.24-.74c.25.02.71.04.98.03Z" class="cls-14"/><path d="m298.87 291.56-.69.15c.01-.16.02-.47 0-.62h.48c.12.01.32.45.2.47ZM388.96 331.95v.73l-.62-.32c-.09-.04.06-.18.15-.22zM388.96 326.05v.73l-.74-.31c-.1-.04.16-.17.27-.21zM388.96 330.71v.73l-.66-.26c-.1-.04.17-.21.26-.26z" class="cls-8"/><path d="M276.58 633.29c-.6.08-1.61-.02-1.64-.58l1.09-.05c.27-.01.5.38.55.63M266.65 632.74c.08 0 .24-.04.31-.04-.14.17-.24.21-.31.04" class="cls-3"/><path d="M281.85 264.04v.1h-9.9c-.11.24-.33.66-.37.91-.05.35-.09.95-.09 1.31v25.73c0 .65-.02 1.37 0 2.02.06 1.49.12 3 0 4.49l-.21 2.67.11.44c0 .06-.04.2-.04.27l-5.07-.05c-.22 1.08-.3 3.18-.28 4.38l.15.44c.24.72-4.59.06-5.23.73l-.15 25.81.06.63c-3.66.25-7.26.33-11.22.16l-.02-11.1c-1.4-.01-3.77-.13-4.98-.29h-.24l-.04-15.54c-1.72 0-3.48-.02-5.36-.21-.38-7.16-.26-13.73.02-21.17l-9.86.06-.3-.26c-.01-.09-.04-.29-.04-.38l-.22-29.1c0-.59-.06-2.1-.59-2.34l-4.42.14-.39-.37v-.33l.04-15.06.35-.67c1.74.02 3.5-.12 5.15.25l.06 1.57c-.25 1.05-.22 2.33-.11 3.62l5.35.21.02 10.12c2.17.24 4.52.35 6.87.33l19.97-.12 10.38-.16-.22-8.37v-1.49c.53-.23 1.35-.45 2.03-.43l6.52.1c.13-.17.42-.56.42-.56.29.01.86 0 1.16 0l.63.24.03 21.29Z" style="fill:#fbfbfa"/><path d="m281.88 233.13-.05 5.26-.63-.97-.02 5.1c-.3 0-.87.02-1.16 0-1.28-.06-8.52-.46-9.1.58l-33-.14c-1.2 0-2.33-.34-3.25.02-1.61-.78-3.67-.43-5.68-.42 0-1.1-.07-2.46-.22-3.29l-.06-1.57c0-.18-.19-.65-.37-.66l-3.98-.3c-.3-.02-.73.46-.8.71h-.63c-.88-.02-1.87-.08-2.75-.05-.43-.12-1.41-.26-1.89-.26l-.32-.34.04-10.22c2.61.17 5.23.04 8.02.11l7.8.19.12 5.26 41.55.05c1.77 0 3.26.47 5.06.12.55-.11 1.16.32 1.32.82" class="cls-10"/><path d="m201.86 284.9-10.2-.06-.29.02.22-5.56-.24-4.35 4.9-.31c.72 1.37 4.81-.11 5.15 1.09.43 1.5.43 3.56.44 5.09v4.08Z" class="cls-7"/><path d="M220.18 237.41c-.76.02-1.59.57-2.2-.26h.31c.48 0 1.46.14 1.89.26" class="cls-1"/><path d="m223.56 237.46-.35.67-.28-.67zM218.29 237.15h-.31c0-.1-.01-.26-.01-.34z" class="cls-2"/><path d="M281.9 227.62c-.13-1.35-.19-4.1.19-5.4.43 1.67.86 4.02-.19 5.4" class="cls-7"/><path d="m281.84 238.39-.02 4.36-.63-.23.02-5.1z" class="cls-14"/><path d="M281.9 230.72v-2.63c.87.44.87 2.19 0 2.63" class="cls-7"/><path d="M295.46 285.21c-.16-.01-.47 0-.64 0l-.13-.54c-.03-.13.57-.22.6-.1l.17.63Z" class="cls-8"/><path d="m378.4 333.89-.25 26.24-5.25.11-.45 5.14-4.48.06c.29-3.49.29-7.01.2-10.74-1.41.4.38 4.54-1.07 5.17-.56.25-1.76.35-2.55.35h-15.44l-.32-.32c-.29-.33-1.07-.89-1.59-.89l-9.04.02c-2.65 0-1.36-2.63-2.15-4.24.48-.2 1.48-.37 2.11-.38l7.85-.09c3.52-.04 7 .3 10.85.29v-5l-10.87.08-8 .02-7.16-.03-.61-.38-.07-10.44 15.87.13 11.02.03-.14-11-8.48-.06c-.72 0-1.82.29-2.39.36l-15.83-.02-.04-10.59 26.68-.04 10.55-.18c.12-1.14.18-1.89.21-2.77l.08-2.3s.08-.04.12-.05c1-.29-.32 3.71 1.69 3.99.49.07 1.8-.4 2.12-.06l1.07 1.14.91.08.24.74c.05.16.71.09.71-.07l.03-.65.92-.02c.61-.01 2.05-.27 2.44.2.45.54.37 2.07.35 2.77-.01.91-.07 2.16-.06 3.1l.23 10.3Z" class="cls-14"/><path d="m324.63 638.31-.13 10.64-20.98.04c-.18-3.56-.32-7.13-.07-10.68z" class="cls-16"/><path d="M335.41 638.53c.04 2.6-.19 7.65.3 10.42H324.5l.13-10.63 10.78.22Z" class="cls-3"/><path d="m345.94 648.99-10.24-.05c-.49-2.77-.26-7.81-.3-10.42 0-.08.04-.25.05-.33l10.57.08-.09 10.72Z" class="cls-16"/><path d="M281.84 638.27c-1.16.26-3.53.59-4.67-.06 1.54-.32 3.26-.53 4.67.06" class="cls-3"/><path d="M196.56 638.32c-.03 3.56.14 7.15-.25 10.67l-10.84.04-10.23-.29-.02-10.42z" class="cls-16"/><path d="m175.22 638.32.02 10.42 10.23.29c-3.59.94-7.54.19-11.47.06l-9.61-.32c.34-3.49.33-7.01.31-10.53l10.51.08ZM207.46 638.23l-.04 3.36-.05 7.43-11.05-.03c.39-3.52.22-7.11.25-10.67z" class="cls-3"/><path d="M164.71 638.24c.02 3.52.03 7.04-.31 10.53l-10.3.04.06-10.21c0-.09.09-.27.06-.36h10.48Z" class="cls-16"/><path d="M146.12 649.03h-.99c.14-.08.85-.08.99 0" class="cls-3"/><path d="m330.18 627.76.04 5.25-5.45-.04c-.06-1.86-.03-3.35.1-5.01 1.68-.61 3.53-.19 5.31-.2" class="cls-16"/><path d="M335.48 637.95c-.45-.49-.28-1.49-.29-2.25.79.28.61 1.55.29 2.25" class="cls-3"/><path d="m375.09 272.51.02 2.12h-.82c-.38.02-.3-2.15 0-2.14l.81.02ZM376.65 274.89l-.58.4c-.18.13-.44-.43-.43-.6l1.02.2Z" class="cls-7"/><circle cx="175.99" cy="553.16" r=".11" class="cls-2"/><path d="m186 424.2-4.31.15-.02-4.98c1.61-.07 2.67-.05 4.28.14l.05 4.7ZM175.52 438.98l.22-2.21c.05.62-.1 1.63-.22 2.21" class="cls-8"/><path d="m308.42 247.96-5.19.08v5.24l-10.7.02.13 5.78 5.14.14.15 4.79 5.44.2.12 10.43-5.77.21-.02 10.03c-.32.53-1.71.35-2.26.31l-.17-.63c-.03-.12-.63-.03-.6.1l.13.54-2.21.4.04 15.96-3.85-.1c-.4 0-1.17.43-1.46.71l-.07 4.32-5.38.27.17 10.6-5.17.17-.14 5.09-5.47.06v5.38c-1.65.29-3.34.3-5.03 0l.04-10.55c1.84-.09 3.29.07 4.97-.33l.07-15.21c0-.06.03-.2.04-.27 1.81-.23 3.63-.37 5.45-.36l.04-20.68c1.71-.87 3.21-.16 4.99-.48l-.02-16.04v-.1c2.01.14 3.6.2 5.34-.15l.05-21.79.12-15.23 4.96.04.16 5.22 9.5-.27c.26 0 .89.17 1.09.32.24.19.45.87.44 1.2l-.21 9.58 5.23.07z" class="cls-7"/><path d="m277.2 434.36-.33.59-4.64-.35-.62-.67.01-.57zM273.14 328.34c-.17 1.09-.57 2.21-1.53 2.71l-.08-2.74zM272.53 429.41c-.22.35-.61.83-.91 1.1l-.02-1.76c.24.02 1.09.4.92.66ZM277.82 440.19c-.3 0-.87-.29-.88-.58v-1.02c.24.07.67.13.7.36l.18 1.25ZM261.66 355.61l-.65.28-.24-.96.63-.03c.17 0 .43.63.27.71Z" class="cls-8"/><path d="M272.24 434.6c-.2-.01-.72.11-.69-.08.02-.18.06-.46.07-.59z" class="cls-7"/><path d="m170.64 440.19-.66 3.14c-.53-1.01-.38-2.23 0-3.55z" class="cls-10"/><path d="M201.9 285.54v37.19h-21.15l.02-37.24h5.3c2 .02 3.76-.09 5.32-.63l.29-.02c.21.5.78.72 1.41.71l8.82-.02Z" style="fill:#e80011"/><path d="M345.97 339c.4-3.5.4-7.18 0-10.67.57-.07 1.67-.36 2.39-.36l8.48.06.14 11-11.02-.03Z" class="cls-10"/><path d="m340.56 301.34-10.41.24-.08-10.84 10.45-.04z" class="cls-8"/><path d="m345.97 354.32-7.85.09c-.64 0-1.63.18-2.11.38l-.45.07c.02-2.02-1.54-3.18-3.27-4.48l5.24-.1c.11-.14.42-.56.42-.56l8-.02c.15 1.53.14 3.08.02 4.63Z" class="cls-5"/><path d="M325.08 336.88v20.93s-.37-.3-.52-.43v-20.07c.15-.12.52-.43.52-.43M324.86 307.58l-.33-2.85c-.45-3.95.34-7.79.35-11.55.49 2.4.5 12.29-.02 14.4M325.08 328.06c-1.36-1.62-.19-4.12-.19-6.04.54 1.9.25 4.02.19 6.04M325.19 285.48l-.29.71-.32-.23c-.1-.07.04-.44.16-.45l.46-.03Z" class="cls-7"/><path d="M330.79 349.68c-.2 0-.61-.18-.61-.38zM349.12 360.22c-.8 0-1.8.65-2.57.05.65-.25 1.53-.38 2.25-.37z" class="cls-10"/><path d="m367.62 312.42-.08 2.3c-.26-.08-.62-.81-.64-1.19-.01-.35.4-.96.72-1.11" class="cls-7"/><path d="M356.83 349.62v5c-3.86 0-7.34-.33-10.86-.29.12-1.54.12-3.09-.02-4.63z" class="cls-10"/><path d="m271.27 253.28-10.38.16-19.97.12c-2.36.02-4.7-.09-6.87-.33l-.02-10.12-5.35-.21c-.12-1.29-.15-2.57.11-3.62.15.83.22 2.19.22 3.29 2.01-.01 4.07-.37 5.68.42.92-.36 2.05-.02 3.25-.02l33 .14.12.31v1.49l.22 8.37Z" class="cls-14"/><path d="M280.03 242.52s-.29.39-.42.56l-6.52-.1c-.68-.01-1.51.2-2.04.43l-.12-.31c.58-1.04 7.82-.65 9.1-.58M228.71 237.72c-1.66-.37-3.42-.23-5.15-.25.07-.25.5-.73.8-.71l3.98.3c.19.01.37.48.37.66" class="cls-14"/></g><g id="Layer_2"><path d="M294.53 146.64v20.06l-11.06.04-.04-16.89.33-2.88c.27-.12 1.08-.4 1.53-.4l9.24.08ZM241.44 165.81c-.06.29-.15.57-.27.85H231l.14-6.11-.17-13.93c3.37-.64 6.76.11 10.49-.04l.05 10.61.02 4.16c.01 1.54.25 2.99-.09 4.45Z" class="cls-15"/></g></svg>