<svg viewBox="0 0 480 600" style="height: 100%; width: auto; overflow: visible; animation: driftR 16s ease-in-out infinite alternate;"><g style="animation: svgbreathe 14s ease-in-out infinite;"><line x1="40" y1="30" x2="40" y2="570" stroke="#9aa39a" stroke-width="0.7"></line><line x1="90" y1="30" x2="90" y2="570" stroke="#9aa39a" stroke-width="0.7"></line><line x1="140" y1="30" x2="140" y2="570" stroke="#9aa39a" stroke-width="0.7"></line><line x1="190" y1="30" x2="190" y2="570" stroke="#9aa39a" stroke-width="0.7"></line><line x1="240" y1="30" x2="240" y2="570" stroke="#9aa39a" stroke-width="0.7"></line><line x1="290" y1="30" x2="290" y2="570" stroke="#9aa39a" stroke-width="0.7"></line><line x1="340" y1="30" x2="340" y2="570" stroke="#9aa39a" stroke-width="0.7"></line><line x1="390" y1="30" x2="390" y2="570" stroke="#9aa39a" stroke-width="0.7"></line><line x1="440" y1="30" x2="440" y2="570" stroke="#9aa39a" stroke-width="0.7"></line><line x1="30" y1="60" x2="450" y2="60" stroke="#9aa39a" stroke-width="0.7"></line><line x1="30" y1="110" x2="450" y2="110" stroke="#9aa39a" stroke-width="0.7"></line><line x1="30" y1="160" x2="450" y2="160" stroke="#9aa39a" stroke-width="0.7"></line><line x1="30" y1="210" x2="450" y2="210" stroke="#9aa39a" stroke-width="0.7"></line><line x1="30" y1="260" x2="450" y2="260" stroke="#9aa39a" stroke-width="0.7"></line><line x1="30" y1="310" x2="450" y2="310" stroke="#9aa39a" stroke-width="0.7"></line><line x1="30" y1="360" x2="450" y2="360" stroke="#9aa39a" stroke-width="0.7"></line><line x1="30" y1="410" x2="450" y2="410" stroke="#9aa39a" stroke-width="0.7"></line><line x1="30" y1="460" x2="450" y2="460" stroke="#9aa39a" stroke-width="0.7"></line><line x1="30" y1="510" x2="450" y2="510" stroke="#9aa39a" stroke-width="0.7"></line><line x1="30" y1="560" x2="450" y2="560" stroke="#9aa39a" stroke-width="0.7"></line></g><g style="transform-origin: 430px 110px; animation: svgsweep 26s ease-in-out infinite alternate;"><circle cx="430" cy="110" r="150" fill="none" stroke="#9aa39a" stroke-width="1.2" opacity="0.5"></circle><line x1="405.3" y1="249.8" x2="404.0" y2="257.7" stroke="#9aa39a" stroke-width="1.1" opacity="0.6"></line><line x1="381.4" y1="243.4" x2="378.7" y2="251.0" stroke="#9aa39a" stroke-width="1.1" opacity="0.6"></line><line x1="363.0" y1="226.0" x2="355.0" y2="239.9" stroke="#9aa39a" stroke-width="1.1" opacity="0.6"></line><line x1="338.7" y1="218.8" x2="333.6" y2="224.9" stroke="#9aa39a" stroke-width="1.1" opacity="0.6"></line><line x1="321.2" y1="201.3" x2="315.1" y2="206.4" stroke="#9aa39a" stroke-width="1.1" opacity="0.6"></line><line x1="314.0" y1="177.0" x2="300.1" y2="185.0" stroke="#9aa39a" stroke-width="1.1" opacity="0.6"></line><line x1="296.6" y1="158.6" x2="289.0" y2="161.3" stroke="#9aa39a" stroke-width="1.1" opacity="0.6"></line><line x1="290.2" y1="134.7" x2="282.3" y2="136.0" stroke="#9aa39a" stroke-width="1.1" opacity="0.6"></line><line x1="296.0" y1="110.0" x2="280.0" y2="110.0" stroke="#9aa39a" stroke-width="1.1" opacity="0.6"></line><line x1="290.2" y1="85.3" x2="282.3" y2="84.0" stroke="#9aa39a" stroke-width="1.1" opacity="0.6"></line><line x1="296.6" y1="61.4" x2="289.0" y2="58.7" stroke="#9aa39a" stroke-width="1.1" opacity="0.6"></line><line x1="314.0" y1="43.0" x2="300.1" y2="35.0" stroke="#9aa39a" stroke-width="1.1" opacity="0.6"></line><line x1="321.2" y1="18.7" x2="315.1" y2="13.6" stroke="#9aa39a" stroke-width="1.1" opacity="0.6"></line><line x1="338.7" y1="1.2" x2="333.6" y2="-4.9" stroke="#9aa39a" stroke-width="1.1" opacity="0.6"></line><line x1="363.0" y1="-6.0" x2="355.0" y2="-19.9" stroke="#9aa39a" stroke-width="1.1" opacity="0.6"></line><line x1="381.4" y1="-23.4" x2="378.7" y2="-31.0" stroke="#9aa39a" stroke-width="1.1" opacity="0.6"></line></g><polyline points="90,510 140,460 190,470 240,380 290,310 340,330 390,210 430,120" fill="none" stroke="#9aa39a" stroke-width="0.85" opacity="0.7"></polyline><polyline points="90,510 140,460 190,470 240,380 290,310 340,330 390,210 430,120" pathLength="1" fill="none" stroke="#d6ded6" stroke-width="1" style="stroke-dasharray: 0.08 0.92; animation: svgsignal 9s linear infinite;"></polyline><rect x="88" y="508" width="4" height="4" fill="none" stroke="#c3cbc3" stroke-width="0.7" style="animation: svgpulse 6s ease-in-out 0.0s infinite;"></rect><rect x="138" y="458" width="4" height="4" fill="none" stroke="#c3cbc3" stroke-width="0.7" style="animation: svgpulse 6s ease-in-out 0.7s infinite;"></rect><rect x="188" y="468" width="4" height="4" fill="none" stroke="#c3cbc3" stroke-width="0.7" style="animation: svgpulse 6s ease-in-out 1.4s infinite;"></rect><rect x="238" y="378" width="4" height="4" fill="none" stroke="#c3cbc3" stroke-width="0.7" style="animation: svgpulse 6s ease-in-out 2.1s infinite;"></rect><rect x="288" y="308" width="4" height="4" fill="none" stroke="#c3cbc3" stroke-width="0.7" style="animation: svgpulse 6s ease-in-out 2.8s infinite;"></rect><rect x="338" y="328" width="4" height="4" fill="none" stroke="#c3cbc3" stroke-width="0.7" style="animation: svgpulse 6s ease-in-out 3.5s infinite;"></rect><rect x="388" y="208" width="4" height="4" fill="none" stroke="#c3cbc3" stroke-width="0.7" style="animation: svgpulse 6s ease-in-out 4.2s infinite;"></rect><rect x="428" y="118" width="4" height="4" fill="none" stroke="#c3cbc3" stroke-width="0.7" style="animation: svgpulse 6s ease-in-out 4.9s infinite;"></rect><g style="transform-origin: 140px 150px; animation: svgspin 40s linear infinite;"><line x1="135" y1="150" x2="145" y2="150" stroke="#9aa39a" stroke-width="0.6" opacity="0.7"></line><line x1="140" y1="145" x2="140" y2="155" stroke="#9aa39a" stroke-width="0.6" opacity="0.7"></line></g><g style="transform-origin: 330px 480px; animation: svgspin 54s linear infinite;"><line x1="325" y1="480" x2="335" y2="480" stroke="#9aa39a" stroke-width="0.6" opacity="0.7"></line><line x1="330" y1="475" x2="330" y2="485" stroke="#9aa39a" stroke-width="0.6" opacity="0.7"></line></g><g style="transform-origin: 80px 300px; animation: svgspin 68s linear infinite;"><line x1="75" y1="300" x2="85" y2="300" stroke="#9aa39a" stroke-width="0.6" opacity="0.7"></line><line x1="80" y1="295" x2="80" y2="305" stroke="#9aa39a" stroke-width="0.6" opacity="0.7"></line></g></svg>